<svg xmlns="http://www.w3.org/2000/svg" xmlns:xlink="http://www.w3.org/1999/xlink" width="500" zoomAndPan="magnify" viewBox="0 0 375 374.999991" height="500" preserveAspectRatio="xMidYMid meet" version="1.0"><defs><g/><clipPath id="285175954a"><path d="M 98 249 L 144 249 L 144 295.277344 L 98 295.277344 Z M 98 249 " clip-rule="nonzero"/></clipPath><clipPath id="0a1cd0b2c5"><path d="M 190 249 L 236 249 L 236 295.277344 L 190 295.277344 Z M 190 249 " clip-rule="nonzero"/></clipPath><clipPath id="c2653deb49"><path d="M 61.128906 80.027344 L 269.628906 80.027344 L 269.628906 240 L 61.128906 240 Z M 61.128906 80.027344 " clip-rule="nonzero"/></clipPath><clipPath id="9b6446682a"><path d="M 160 63.910156 L 216.25 63.910156 L 216.25 121 L 160 121 Z M 160 63.910156 " clip-rule="nonzero"/></clipPath><clipPath id="63a2598838"><path d="M 160 73 L 203 73 L 203 123.910156 L 160 123.910156 Z M 160 73 " clip-rule="nonzero"/></clipPath></defs><g clip-path="url(#285175954a)"><path fill="#ff914d" d="M 120.828125 249.96875 C 108.359375 249.96875 98.214844 260.128906 98.214844 272.613281 C 98.214844 285.101562 108.359375 295.257812 120.828125 295.257812 C 133.296875 295.257812 143.441406 285.101562 143.441406 272.613281 C 143.441406 260.128906 133.296875 249.96875 120.828125 249.96875 Z M 120.828125 280.847656 C 116.292969 280.847656 112.605469 277.152344 112.605469 272.613281 C 112.605469 268.074219 116.292969 264.378906 120.828125 264.378906 C 125.363281 264.378906 129.050781 268.074219 129.050781 272.613281 C 129.050781 277.152344 125.363281 280.847656 120.828125 280.847656 Z M 120.828125 280.847656 " fill-opacity="1" fill-rule="nonzero"/></g><g clip-path="url(#0a1cd0b2c5)"><path fill="#ff914d" d="M 213.332031 249.96875 C 200.863281 249.96875 190.722656 260.128906 190.722656 272.613281 C 190.722656 285.101562 200.863281 295.257812 213.332031 295.257812 C 225.800781 295.257812 235.945312 285.101562 235.945312 272.613281 C 235.945312 260.128906 225.800781 249.96875 213.332031 249.96875 Z M 213.332031 280.847656 C 208.800781 280.847656 205.109375 277.152344 205.109375 272.613281 C 205.109375 268.074219 208.800781 264.378906 213.332031 264.378906 C 217.867188 264.378906 221.554688 268.074219 221.554688 272.613281 C 221.554688 277.152344 217.867188 280.847656 213.332031 280.847656 Z M 213.332031 280.847656 " fill-opacity="1" fill-rule="nonzero"/></g><g clip-path="url(#c2653deb49)"><path fill="#ff914d" d="M 255.074219 202.726562 C 255.261719 202.414062 255.429688 202.09375 255.566406 201.753906 C 255.582031 201.722656 255.589844 201.691406 255.601562 201.660156 C 255.753906 201.269531 255.878906 200.863281 255.964844 200.445312 L 269.476562 136.175781 C 269.476562 136.171875 269.476562 136.171875 269.476562 136.167969 C 269.511719 136 269.535156 135.828125 269.558594 135.65625 C 269.570312 135.582031 269.585938 135.507812 269.59375 135.433594 C 269.597656 135.390625 269.597656 135.347656 269.601562 135.304688 C 269.640625 134.851562 269.636719 134.402344 269.59375 133.964844 C 269.589844 133.914062 269.578125 133.867188 269.574219 133.820312 C 269.550781 133.636719 269.527344 133.449219 269.488281 133.269531 C 269.46875 133.167969 269.441406 133.070312 269.414062 132.96875 C 269.382812 132.84375 269.355469 132.71875 269.320312 132.59375 C 269.28125 132.464844 269.230469 132.339844 269.183594 132.210938 C 269.152344 132.125 269.125 132.03125 269.085938 131.945312 C 269.03125 131.808594 268.96875 131.679688 268.902344 131.546875 C 268.867188 131.46875 268.832031 131.390625 268.792969 131.316406 C 268.726562 131.191406 268.652344 131.070312 268.578125 130.949219 C 268.53125 130.871094 268.488281 130.792969 268.4375 130.714844 C 268.367188 130.609375 268.289062 130.507812 268.214844 130.40625 C 268.148438 130.320312 268.089844 130.234375 268.023438 130.152344 C 267.953125 130.066406 267.878906 129.984375 267.804688 129.902344 C 267.722656 129.808594 267.640625 129.71875 267.554688 129.628906 C 267.488281 129.5625 267.414062 129.496094 267.347656 129.433594 C 267.246094 129.339844 267.148438 129.242188 267.042969 129.15625 C 266.972656 129.097656 266.898438 129.046875 266.828125 128.992188 C 266.71875 128.902344 266.605469 128.816406 266.488281 128.738281 C 266.40625 128.679688 266.320312 128.632812 266.238281 128.578125 C 266.125 128.507812 266.015625 128.4375 265.902344 128.375 C 265.785156 128.3125 265.667969 128.257812 265.550781 128.199219 C 265.460938 128.15625 265.371094 128.109375 265.277344 128.070312 C 265.105469 127.996094 264.925781 127.929688 264.746094 127.871094 C 264.703125 127.855469 264.664062 127.835938 264.621094 127.824219 C 264.214844 127.691406 263.789062 127.601562 263.351562 127.546875 C 263.296875 127.539062 263.238281 127.527344 263.179688 127.519531 C 263.136719 127.515625 263.089844 127.515625 263.042969 127.511719 C 262.835938 127.496094 262.632812 127.484375 262.425781 127.484375 L 99.039062 127.484375 L 94.734375 86.496094 C 94.351562 82.832031 91.261719 80.046875 87.582031 80.046875 L 68.324219 80.046875 C 64.351562 80.046875 61.128906 83.273438 61.128906 87.25 C 61.128906 91.230469 64.351562 94.457031 68.324219 94.457031 L 81.101562 94.457031 L 90.503906 183.984375 C 90.574219 184.636719 90.730469 185.261719 90.957031 185.84375 L 94.957031 224.109375 C 95.941406 232.984375 103.40625 239.675781 112.320312 239.675781 L 241.878906 239.675781 C 245.855469 239.675781 249.074219 236.449219 249.074219 232.46875 C 249.074219 228.492188 245.855469 225.265625 241.878906 225.265625 L 112.320312 225.265625 C 110.75 225.265625 109.429688 224.085938 109.261719 222.566406 L 100.832031 141.894531 L 253.566406 141.894531 L 243.074219 191.8125 L 135.800781 191.8125 C 131.828125 191.8125 128.605469 195.039062 128.605469 199.019531 C 128.605469 203 131.828125 206.222656 135.800781 206.222656 L 248.898438 206.222656 C 248.90625 206.222656 248.914062 206.226562 248.917969 206.226562 C 248.933594 206.226562 248.945312 206.222656 248.957031 206.222656 C 249.320312 206.21875 249.675781 206.183594 250.027344 206.128906 C 250.09375 206.121094 250.15625 206.113281 250.222656 206.101562 C 250.574219 206.035156 250.917969 205.941406 251.25 205.828125 C 251.304688 205.808594 251.355469 205.789062 251.410156 205.769531 C 251.753906 205.640625 252.085938 205.496094 252.402344 205.316406 C 252.421875 205.308594 252.441406 205.292969 252.460938 205.28125 C 252.777344 205.101562 253.074219 204.902344 253.359375 204.679688 C 253.386719 204.65625 253.414062 204.636719 253.441406 204.617188 C 253.714844 204.394531 253.96875 204.148438 254.207031 203.886719 C 254.253906 203.835938 254.300781 203.785156 254.347656 203.730469 C 254.574219 203.472656 254.78125 203.195312 254.96875 202.902344 C 255.003906 202.84375 255.039062 202.785156 255.074219 202.726562 Z M 255.074219 202.726562 " fill-opacity="1" fill-rule="nonzero"/></g><g clip-path="url(#9b6446682a)"><path fill="#ff914d" d="M 160.492188 91.875 C 160.492188 76.433594 173.011719 63.910156 188.457031 63.910156 C 203.902344 63.910156 216.425781 76.433594 216.425781 91.875 C 216.425781 101.269531 211.792969 109.582031 204.6875 114.652344 C 204.628906 114.695312 208.089844 120.664062 208.089844 120.664062 L 204.453125 114.671875 L 200.636719 107.105469 L 198.179688 105.609375 L 200.859375 104.058594 L 198.199219 102.070312 L 206.300781 103.597656 L 200.664062 94.261719 L 196.117188 93.078125 C 194.605469 88.855469 192.191406 85.023438 188.527344 82.210938 C 186.867188 80.933594 184.992188 79.914062 183.007812 79.253906 C 182.21875 78.988281 181.257812 78.722656 180.425781 78.640625 L 179.605469 78.558594 L 179.269531 79.308594 C 178.925781 80.070312 178.675781 81.035156 178.507812 81.847656 C 178.089844 83.898438 178.035156 86.035156 178.308594 88.109375 C 178.914062 92.6875 181.03125 96.691406 183.929688 100.113281 L 182.683594 104.640625 L 187.949219 114.191406 L 190.675781 106.414062 L 191.070312 109.710938 L 193.753906 108.164062 L 193.824219 111.039062 L 198.394531 118.023438 C 198.316406 118.050781 198.234375 118.082031 198.152344 118.113281 C 195.136719 119.226562 191.871094 119.835938 188.464844 119.835938 C 173.019531 119.835938 160.5 107.316406 160.5 91.871094 Z M 197.679688 106.585938 L 196.984375 106.300781 L 197.597656 105.945312 Z M 194.324219 107.835938 L 194.941406 107.476562 L 194.84375 108.222656 L 194.328125 107.835938 Z M 194.324219 107.835938 " fill-opacity="1" fill-rule="evenodd"/></g><g clip-path="url(#63a2598838)"><path fill="#ff3131" d="M 160.492188 91.875 C 160.492188 84.6875 163.203125 78.136719 167.660156 73.179688 C 167.625 73.296875 158.8125 103.082031 186.980469 112.449219 L 187.941406 114.199219 L 188.398438 112.894531 C 190.722656 113.582031 193.28125 114.140625 196.101562 114.535156 L 202.265625 123.902344 C 202.265625 123.902344 198.171875 118.109375 198.171875 118.109375 C 195.144531 119.230469 191.871094 119.84375 188.457031 119.84375 C 173.011719 119.84375 160.488281 107.320312 160.488281 91.875 Z M 160.492188 91.875 " fill-opacity="1" fill-rule="evenodd"/></g><path fill="#ff3131" d="M 196.933594 102.046875 C 194.710938 81.246094 180.304688 79.777344 180.304688 79.777344 C 180.304688 79.777344 174.378906 92.984375 191.277344 105.3125 Z M 183.960938 86.105469 C 182.082031 87.191406 181.4375 89.589844 182.523438 91.46875 C 183.609375 93.347656 186.007812 93.992188 187.886719 92.90625 C 189.765625 91.824219 190.410156 89.421875 189.324219 87.542969 C 188.242188 85.667969 185.839844 85.023438 183.960938 86.105469 Z M 202.390625 118.023438 L 195.972656 108.351562 L 196.132812 107.183594 L 197.21875 107.628906 Z M 191.992188 107.863281 L 191.78125 106.101562 L 197.371094 102.875 L 198.792969 103.9375 Z M 196.121094 94.261719 L 199.925781 95.25 L 204.003906 102.007812 L 197.90625 100.855469 C 197.90625 100.855469 197.097656 96.65625 196.117188 94.257812 Z M 194.925781 109.71875 L 194.949219 110.691406 L 199.128906 117.078125 L 195.679688 110.292969 L 194.921875 109.71875 Z M 184.945312 100.714844 L 183.902344 104.503906 L 187.710938 111.414062 L 189.765625 105.5625 C 189.765625 105.5625 186.53125 102.761719 184.945312 100.714844 Z M 198.929688 107.40625 L 199.761719 107.914062 L 203.203125 114.726562 L 199.050781 108.351562 L 198.933594 107.40625 Z M 198.929688 107.40625 " fill-opacity="1" fill-rule="evenodd"/><path fill="#ff3131" d="M 189.722656 72.683594 C 189.722656 73.179688 189.820312 73.660156 190.007812 74.117188 C 190.199219 74.578125 190.472656 74.984375 190.824219 75.335938 C 191.175781 75.6875 191.578125 75.957031 192.039062 76.148438 C 192.5 76.339844 192.976562 76.433594 193.476562 76.433594 C 193.972656 76.433594 194.449219 76.339844 194.910156 76.148438 C 195.371094 75.957031 195.773438 75.6875 196.125 75.335938 C 196.480469 74.984375 196.75 74.578125 196.941406 74.117188 C 197.128906 73.660156 197.226562 73.179688 197.226562 72.683594 C 197.226562 72.1875 197.128906 71.707031 196.941406 71.25 C 196.75 70.789062 196.480469 70.382812 196.125 70.03125 C 195.773438 69.679688 195.371094 69.410156 194.910156 69.21875 C 194.449219 69.027344 193.972656 68.933594 193.476562 68.933594 C 192.976562 68.933594 192.5 69.027344 192.039062 69.21875 C 191.578125 69.410156 191.175781 69.679688 190.824219 70.03125 C 190.472656 70.382812 190.199219 70.789062 190.007812 71.25 C 189.820312 71.707031 189.722656 72.1875 189.722656 72.683594 Z M 189.722656 72.683594 " fill-opacity="1" fill-rule="nonzero"/><path fill="#ff3131" d="M 199.386719 84.949219 C 199.386719 85.292969 199.453125 85.625 199.585938 85.945312 C 199.71875 86.265625 199.90625 86.546875 200.148438 86.792969 C 200.394531 87.035156 200.675781 87.222656 200.996094 87.355469 C 201.3125 87.488281 201.648438 87.554688 201.992188 87.554688 C 202.335938 87.554688 202.671875 87.488281 202.988281 87.355469 C 203.308594 87.222656 203.589844 87.035156 203.835938 86.792969 C 204.078125 86.546875 204.265625 86.265625 204.398438 85.945312 C 204.53125 85.625 204.597656 85.292969 204.597656 84.949219 C 204.597656 84.601562 204.53125 84.269531 204.398438 83.953125 C 204.265625 83.632812 204.078125 83.351562 203.835938 83.105469 C 203.589844 82.863281 203.308594 82.675781 202.988281 82.542969 C 202.671875 82.410156 202.335938 82.34375 201.992188 82.34375 C 201.648438 82.34375 201.3125 82.410156 200.996094 82.542969 C 200.675781 82.675781 200.394531 82.863281 200.148438 83.105469 C 199.90625 83.351562 199.71875 83.632812 199.585938 83.953125 C 199.453125 84.269531 199.386719 84.601562 199.386719 84.949219 Z M 199.386719 84.949219 " fill-opacity="1" fill-rule="nonzero"/><path fill="#302d2d" d="M 195.625 101.335938 L 195.023438 100.3125 L 195.566406 99.972656 L 196.171875 101.003906 Z M 195.625 101.335938 " fill-opacity="1" fill-rule="evenodd"/><path fill="#ff3131" d="M 195.566406 99.972656 L 195.023438 100.3125 L 194.769531 100.328125 L 195.316406 100.007812 Z M 195.566406 99.972656 " fill-opacity="1" fill-rule="evenodd"/><path fill="#ff914d" d="M 195.023438 100.3125 L 195.625 101.335938 L 195.371094 101.375 L 194.769531 100.328125 Z M 195.023438 100.3125 " fill-opacity="1" fill-rule="evenodd"/><path fill="#302d2d" d="M 194.796875 101.820312 L 194.054688 100.554688 L 194.59375 100.214844 L 195.34375 101.492188 Z M 194.796875 101.820312 " fill-opacity="1" fill-rule="evenodd"/><path fill="#ff3131" d="M 194.59375 100.214844 L 194.054688 100.554688 L 193.796875 100.570312 L 194.34375 100.253906 Z M 194.59375 100.214844 " fill-opacity="1" fill-rule="evenodd"/><path fill="#ff914d" d="M 194.054688 100.554688 L 194.796875 101.820312 L 194.542969 101.859375 L 193.796875 100.570312 Z M 194.054688 100.554688 " fill-opacity="1" fill-rule="evenodd"/><path fill="#302d2d" d="M 193.960938 102.316406 L 193.039062 100.746094 L 193.578125 100.402344 L 194.507812 101.984375 Z M 193.960938 102.316406 " fill-opacity="1" fill-rule="evenodd"/><path fill="#ff3131" d="M 193.578125 100.402344 L 193.039062 100.746094 L 192.785156 100.757812 L 193.328125 100.441406 Z M 193.578125 100.402344 " fill-opacity="1" fill-rule="evenodd"/><path fill="#ff914d" d="M 193.039062 100.746094 L 193.960938 102.316406 L 193.703125 102.351562 L 192.785156 100.757812 Z M 193.039062 100.746094 " fill-opacity="1" fill-rule="evenodd"/><path fill="#302d2d" d="M 193.109375 102.816406 L 191.949219 100.835938 L 192.488281 100.496094 L 193.65625 102.480469 Z M 193.109375 102.816406 " fill-opacity="1" fill-rule="evenodd"/><path fill="#ff3131" d="M 192.488281 100.496094 L 191.949219 100.835938 L 191.691406 100.851562 L 192.238281 100.53125 Z M 192.488281 100.496094 " fill-opacity="1" fill-rule="evenodd"/><path fill="#ff914d" d="M 191.949219 100.835938 L 193.109375 102.816406 L 192.851562 102.851562 L 191.691406 100.851562 Z M 191.949219 100.835938 " fill-opacity="1" fill-rule="evenodd"/><path fill="#302d2d" d="M 192.277344 103.304688 L 190.8125 100.8125 L 191.355469 100.472656 L 192.824219 102.972656 Z M 192.277344 103.304688 " fill-opacity="1" fill-rule="evenodd"/><path fill="#ff3131" d="M 191.355469 100.472656 L 190.8125 100.8125 L 190.5625 100.828125 L 191.105469 100.511719 Z M 191.355469 100.472656 " fill-opacity="1" fill-rule="evenodd"/><path fill="#ff914d" d="M 190.8125 100.8125 L 192.277344 103.304688 L 192.019531 103.339844 L 190.5625 100.828125 Z M 190.8125 100.8125 " fill-opacity="1" fill-rule="evenodd"/><path fill="#302d2d" d="M 191.433594 103.796875 L 189.609375 100.691406 L 190.152344 100.351562 L 191.980469 103.464844 Z M 191.433594 103.796875 " fill-opacity="1" fill-rule="evenodd"/><path fill="#ff3131" d="M 190.152344 100.351562 L 189.609375 100.691406 L 189.359375 100.707031 L 189.902344 100.390625 Z M 190.152344 100.351562 " fill-opacity="1" fill-rule="evenodd"/><path fill="#ff914d" d="M 189.609375 100.691406 L 191.433594 103.796875 L 191.179688 103.832031 L 189.359375 100.707031 Z M 189.609375 100.691406 " fill-opacity="1" fill-rule="evenodd"/><path fill="#302d2d" d="M 190.597656 104.289062 L 188.355469 100.472656 L 188.894531 100.132812 L 191.144531 103.957031 Z M 190.597656 104.289062 " fill-opacity="1" fill-rule="evenodd"/><path fill="#ff3131" d="M 188.894531 100.132812 L 188.355469 100.472656 L 188.101562 100.488281 L 188.648438 100.167969 Z M 188.894531 100.132812 " fill-opacity="1" fill-rule="evenodd"/><path fill="#ff914d" d="M 188.355469 100.472656 L 190.597656 104.289062 L 190.339844 104.328125 L 188.101562 100.488281 Z M 188.355469 100.472656 " fill-opacity="1" fill-rule="evenodd"/><g fill="#ff00ff" fill-opacity="1"><g transform="translate(118.36439, 178.951145)"><g><path d="M 9.203125 0 L 1.578125 0 C 1.390625 0 1.25 -0.0390625 1.15625 -0.125 C 1.070312 -0.207031 1.03125 -0.347656 1.03125 -0.546875 L 1.03125 -10.265625 C 1.03125 -10.453125 1.070312 -10.585938 1.15625 -10.671875 C 1.25 -10.753906 1.390625 -10.796875 1.578125 -10.796875 L 3.90625 -10.796875 C 4.09375 -10.796875 4.226562 -10.753906 4.3125 -10.671875 C 4.394531 -10.585938 4.4375 -10.453125 4.4375 -10.265625 L 4.4375 -2.828125 L 6.5 -2.828125 L 6.5 -5.265625 C 6.5 -5.453125 6.539062 -5.585938 6.625 -5.671875 C 6.707031 -5.765625 6.84375 -5.8125 7.03125 -5.8125 L 9.203125 -5.8125 C 9.398438 -5.8125 9.539062 -5.765625 9.625 -5.671875 C 9.707031 -5.585938 9.75 -5.453125 9.75 -5.265625 L 9.75 -0.546875 C 9.75 -0.347656 9.707031 -0.207031 9.625 -0.125 C 9.539062 -0.0390625 9.398438 0 9.203125 0 Z M 9.203125 0 "/></g></g></g><g fill="#ff00ff" fill-opacity="1"><g transform="translate(128.789384, 178.951145)"><g><path d="M 4.953125 -7.65625 L 4.25 -5.375 L 6.59375 -5.375 L 5.890625 -7.65625 C 5.847656 -7.738281 5.804688 -7.800781 5.765625 -7.84375 C 5.722656 -7.882812 5.671875 -7.90625 5.609375 -7.90625 L 5.234375 -7.90625 C 5.171875 -7.90625 5.117188 -7.882812 5.078125 -7.84375 C 5.035156 -7.800781 4.992188 -7.738281 4.953125 -7.65625 Z M 4.09375 -0.546875 C 4.09375 -0.347656 4.050781 -0.207031 3.96875 -0.125 C 3.882812 -0.0390625 3.75 0 3.5625 0 L 1.34375 0 C 1.15625 0 1.019531 -0.0390625 0.9375 -0.125 C 0.851562 -0.207031 0.8125 -0.347656 0.8125 -0.546875 L 0.8125 -4.5 C 0.8125 -4.800781 0.859375 -5.144531 0.953125 -5.53125 C 1.046875 -5.925781 1.191406 -6.382812 1.390625 -6.90625 L 2.703125 -10.3125 C 2.765625 -10.476562 2.859375 -10.597656 2.984375 -10.671875 C 3.109375 -10.753906 3.269531 -10.796875 3.46875 -10.796875 L 7.5 -10.796875 C 7.6875 -10.796875 7.84375 -10.753906 7.96875 -10.671875 C 8.09375 -10.597656 8.1875 -10.476562 8.25 -10.3125 L 9.5625 -6.90625 C 9.757812 -6.382812 9.90625 -5.925781 10 -5.53125 C 10.09375 -5.144531 10.140625 -4.800781 10.140625 -4.5 L 10.140625 -0.546875 C 10.140625 -0.347656 10.097656 -0.207031 10.015625 -0.125 C 9.929688 -0.0390625 9.789062 0 9.59375 0 L 7.328125 0 C 7.128906 0 6.984375 -0.0390625 6.890625 -0.125 C 6.796875 -0.207031 6.75 -0.347656 6.75 -0.546875 L 6.75 -2.640625 L 4.09375 -2.640625 Z M 4.09375 -0.546875 "/></g></g></g><g fill="#ff00ff" fill-opacity="1"><g transform="translate(139.739377, 178.951145)"><g><path d="M 7.328125 0 L 1.578125 0 C 1.390625 0 1.25 -0.0390625 1.15625 -0.125 C 1.070312 -0.207031 1.03125 -0.347656 1.03125 -0.546875 L 1.03125 -10.265625 C 1.03125 -10.453125 1.070312 -10.585938 1.15625 -10.671875 C 1.25 -10.753906 1.390625 -10.796875 1.578125 -10.796875 L 6.359375 -10.796875 C 7.335938 -10.796875 8.0625 -10.609375 8.53125 -10.234375 C 9 -9.859375 9.234375 -9.28125 9.234375 -8.5 L 9.234375 -7.78125 C 9.234375 -7.363281 9.160156 -7.019531 9.015625 -6.75 C 8.878906 -6.488281 8.660156 -6.296875 8.359375 -6.171875 C 8.992188 -6.109375 9.46875 -5.882812 9.78125 -5.5 C 10.09375 -5.125 10.25 -4.570312 10.25 -3.84375 L 10.25 -2.453125 C 10.25 -1.617188 10.007812 -1 9.53125 -0.59375 C 9.050781 -0.195312 8.316406 0 7.328125 0 Z M 4.40625 -8.25 L 4.40625 -6.625 L 5.6875 -6.625 C 5.875 -6.625 6.015625 -6.675781 6.109375 -6.78125 C 6.203125 -6.882812 6.25 -7.035156 6.25 -7.234375 L 6.25 -7.65625 C 6.25 -7.851562 6.203125 -8 6.109375 -8.09375 C 6.015625 -8.195312 5.875 -8.25 5.6875 -8.25 Z M 4.40625 -4.3125 L 4.40625 -2.546875 L 6.359375 -2.546875 C 6.546875 -2.546875 6.6875 -2.59375 6.78125 -2.6875 C 6.882812 -2.789062 6.9375 -2.945312 6.9375 -3.15625 L 6.9375 -3.734375 C 6.9375 -3.929688 6.882812 -4.078125 6.78125 -4.171875 C 6.6875 -4.265625 6.546875 -4.3125 6.359375 -4.3125 Z M 4.40625 -4.3125 "/></g></g></g><g fill="#ff00ff" fill-opacity="1"><g transform="translate(150.614364, 178.951145)"><g><path d="M 8.53125 0 L 1.578125 0 C 1.390625 0 1.25 -0.0390625 1.15625 -0.125 C 1.070312 -0.207031 1.03125 -0.347656 1.03125 -0.546875 L 1.03125 -10.265625 C 1.03125 -10.453125 1.070312 -10.585938 1.15625 -10.671875 C 1.25 -10.753906 1.390625 -10.796875 1.578125 -10.796875 L 8.53125 -10.796875 C 8.71875 -10.796875 8.851562 -10.753906 8.9375 -10.671875 C 9.03125 -10.585938 9.078125 -10.453125 9.078125 -10.265625 L 9.078125 -8.5 C 9.078125 -8.3125 9.03125 -8.175781 8.9375 -8.09375 C 8.851562 -8.007812 8.71875 -7.96875 8.53125 -7.96875 L 4.390625 -7.96875 L 4.390625 -6.8125 L 7.3125 -6.8125 C 7.507812 -6.8125 7.648438 -6.769531 7.734375 -6.6875 C 7.816406 -6.601562 7.859375 -6.460938 7.859375 -6.265625 L 7.859375 -4.671875 C 7.859375 -4.472656 7.816406 -4.332031 7.734375 -4.25 C 7.648438 -4.164062 7.507812 -4.125 7.3125 -4.125 L 4.390625 -4.125 L 4.390625 -2.828125 L 8.53125 -2.828125 C 8.71875 -2.828125 8.851562 -2.785156 8.9375 -2.703125 C 9.03125 -2.617188 9.078125 -2.484375 9.078125 -2.296875 L 9.078125 -0.546875 C 9.078125 -0.347656 9.03125 -0.207031 8.9375 -0.125 C 8.851562 -0.0390625 8.71875 0 8.53125 0 Z M 8.53125 0 "/></g></g></g><g fill="#ff00ff" fill-opacity="1"><g transform="translate(160.424354, 178.951145)"><g><path d="M 8.21875 0 L 4.5625 0 C 3.3125 0 2.382812 -0.25 1.78125 -0.75 C 1.175781 -1.25 0.875 -2.019531 0.875 -3.0625 L 0.875 -7.71875 C 0.875 -8.757812 1.175781 -9.53125 1.78125 -10.03125 C 2.382812 -10.539062 3.3125 -10.796875 4.5625 -10.796875 L 8.21875 -10.796875 C 8.40625 -10.796875 8.539062 -10.753906 8.625 -10.671875 C 8.71875 -10.585938 8.765625 -10.453125 8.765625 -10.265625 L 8.765625 -8.4375 C 8.765625 -8.25 8.71875 -8.113281 8.625 -8.03125 C 8.539062 -7.945312 8.40625 -7.90625 8.21875 -7.90625 L 5.203125 -7.90625 C 4.890625 -7.90625 4.660156 -7.84375 4.515625 -7.71875 C 4.367188 -7.59375 4.296875 -7.40625 4.296875 -7.15625 L 4.296875 -3.578125 C 4.296875 -3.328125 4.367188 -3.144531 4.515625 -3.03125 C 4.660156 -2.914062 4.890625 -2.859375 5.203125 -2.859375 L 8.21875 -2.859375 C 8.40625 -2.859375 8.539062 -2.816406 8.625 -2.734375 C 8.71875 -2.648438 8.765625 -2.515625 8.765625 -2.328125 L 8.765625 -0.546875 C 8.765625 -0.347656 8.71875 -0.207031 8.625 -0.125 C 8.539062 -0.0390625 8.40625 0 8.21875 0 Z M 8.21875 0 "/></g></g></g><g fill="#ff00ff" fill-opacity="1"><g transform="translate(169.84434, 178.951145)"><g><path d="M 10.1875 -2.828125 C 10.1875 -2.367188 10.117188 -1.953125 9.984375 -1.578125 C 9.847656 -1.203125 9.609375 -0.878906 9.265625 -0.609375 C 8.921875 -0.347656 8.445312 -0.144531 7.84375 0 C 7.238281 0.144531 6.46875 0.21875 5.53125 0.21875 C 4.601562 0.21875 3.832031 0.144531 3.21875 0 C 2.613281 -0.144531 2.140625 -0.347656 1.796875 -0.609375 C 1.453125 -0.878906 1.210938 -1.203125 1.078125 -1.578125 C 0.941406 -1.953125 0.875 -2.367188 0.875 -2.828125 L 0.875 -7.953125 C 0.875 -8.410156 0.941406 -8.828125 1.078125 -9.203125 C 1.210938 -9.578125 1.453125 -9.898438 1.796875 -10.171875 C 2.140625 -10.441406 2.613281 -10.648438 3.21875 -10.796875 C 3.832031 -10.953125 4.601562 -11.03125 5.53125 -11.03125 C 6.46875 -11.03125 7.238281 -10.953125 7.84375 -10.796875 C 8.445312 -10.648438 8.921875 -10.441406 9.265625 -10.171875 C 9.609375 -9.898438 9.847656 -9.578125 9.984375 -9.203125 C 10.117188 -8.828125 10.1875 -8.410156 10.1875 -7.953125 Z M 4.28125 -3.375 C 4.28125 -3.175781 4.351562 -3.007812 4.5 -2.875 C 4.644531 -2.738281 4.988281 -2.671875 5.53125 -2.671875 C 6.070312 -2.671875 6.414062 -2.738281 6.5625 -2.875 C 6.71875 -3.007812 6.796875 -3.175781 6.796875 -3.375 L 6.796875 -7.40625 C 6.796875 -7.59375 6.71875 -7.753906 6.5625 -7.890625 C 6.414062 -8.023438 6.070312 -8.09375 5.53125 -8.09375 C 4.988281 -8.09375 4.644531 -8.023438 4.5 -7.890625 C 4.351562 -7.753906 4.28125 -7.59375 4.28125 -7.40625 Z M 4.28125 -3.375 "/></g></g></g><g fill="#ff00ff" fill-opacity="1"><g transform="translate(180.899332, 178.951145)"><g><path d="M 3.8125 0 L 1.578125 0 C 1.390625 0 1.25 -0.0390625 1.15625 -0.125 C 1.070312 -0.207031 1.03125 -0.347656 1.03125 -0.546875 L 1.03125 -10.265625 C 1.03125 -10.453125 1.070312 -10.585938 1.15625 -10.671875 C 1.25 -10.753906 1.390625 -10.796875 1.578125 -10.796875 L 3.984375 -10.796875 C 4.148438 -10.796875 4.285156 -10.757812 4.390625 -10.6875 C 4.492188 -10.625 4.59375 -10.507812 4.6875 -10.34375 L 6.03125 -7.90625 C 6.082031 -7.8125 6.125 -7.742188 6.15625 -7.703125 C 6.1875 -7.671875 6.234375 -7.65625 6.296875 -7.65625 L 6.4375 -7.65625 C 6.5 -7.65625 6.546875 -7.671875 6.578125 -7.703125 C 6.609375 -7.742188 6.648438 -7.8125 6.703125 -7.90625 L 8.046875 -10.34375 C 8.128906 -10.507812 8.222656 -10.625 8.328125 -10.6875 C 8.429688 -10.757812 8.566406 -10.796875 8.734375 -10.796875 L 11.15625 -10.796875 C 11.34375 -10.796875 11.476562 -10.753906 11.5625 -10.671875 C 11.65625 -10.585938 11.703125 -10.453125 11.703125 -10.265625 L 11.703125 -0.546875 C 11.703125 -0.347656 11.65625 -0.207031 11.5625 -0.125 C 11.476562 -0.0390625 11.34375 0 11.15625 0 L 8.84375 0 C 8.65625 0 8.519531 -0.0390625 8.4375 -0.125 C 8.351562 -0.207031 8.3125 -0.347656 8.3125 -0.546875 L 8.3125 -5.8125 L 7.421875 -4.1875 C 7.335938 -4.019531 7.234375 -3.894531 7.109375 -3.8125 C 6.984375 -3.738281 6.820312 -3.703125 6.625 -3.703125 L 6.03125 -3.703125 C 5.84375 -3.703125 5.6875 -3.738281 5.5625 -3.8125 C 5.4375 -3.894531 5.328125 -4.019531 5.234375 -4.1875 L 4.34375 -5.8125 L 4.34375 -0.546875 C 4.34375 -0.347656 4.300781 -0.207031 4.21875 -0.125 C 4.132812 -0.0390625 4 0 3.8125 0 Z M 3.8125 0 "/></g></g></g><g fill="#ff00ff" fill-opacity="1"><g transform="translate(193.634316, 178.951145)"><g><path d="M 8.53125 0 L 1.578125 0 C 1.390625 0 1.25 -0.0390625 1.15625 -0.125 C 1.070312 -0.207031 1.03125 -0.347656 1.03125 -0.546875 L 1.03125 -10.265625 C 1.03125 -10.453125 1.070312 -10.585938 1.15625 -10.671875 C 1.25 -10.753906 1.390625 -10.796875 1.578125 -10.796875 L 8.53125 -10.796875 C 8.71875 -10.796875 8.851562 -10.753906 8.9375 -10.671875 C 9.03125 -10.585938 9.078125 -10.453125 9.078125 -10.265625 L 9.078125 -8.5 C 9.078125 -8.3125 9.03125 -8.175781 8.9375 -8.09375 C 8.851562 -8.007812 8.71875 -7.96875 8.53125 -7.96875 L 4.390625 -7.96875 L 4.390625 -6.8125 L 7.3125 -6.8125 C 7.507812 -6.8125 7.648438 -6.769531 7.734375 -6.6875 C 7.816406 -6.601562 7.859375 -6.460938 7.859375 -6.265625 L 7.859375 -4.671875 C 7.859375 -4.472656 7.816406 -4.332031 7.734375 -4.25 C 7.648438 -4.164062 7.507812 -4.125 7.3125 -4.125 L 4.390625 -4.125 L 4.390625 -2.828125 L 8.53125 -2.828125 C 8.71875 -2.828125 8.851562 -2.785156 8.9375 -2.703125 C 9.03125 -2.617188 9.078125 -2.484375 9.078125 -2.296875 L 9.078125 -0.546875 C 9.078125 -0.347656 9.03125 -0.207031 8.9375 -0.125 C 8.851562 -0.0390625 8.71875 0 8.53125 0 Z M 8.53125 0 "/></g></g></g><g fill="#ff00ff" fill-opacity="1"><g transform="translate(203.444305, 178.951145)"><g><path d="M 4.421875 -8.09375 L 4.421875 -6.1875 L 5.546875 -6.1875 C 5.804688 -6.1875 5.976562 -6.25 6.0625 -6.375 C 6.15625 -6.507812 6.203125 -6.679688 6.203125 -6.890625 L 6.203125 -7.390625 C 6.203125 -7.585938 6.15625 -7.753906 6.0625 -7.890625 C 5.976562 -8.023438 5.804688 -8.09375 5.546875 -8.09375 Z M 3.890625 0 L 1.578125 0 C 1.390625 0 1.25 -0.0390625 1.15625 -0.125 C 1.070312 -0.207031 1.03125 -0.347656 1.03125 -0.546875 L 1.03125 -10.265625 C 1.03125 -10.453125 1.070312 -10.585938 1.15625 -10.671875 C 1.25 -10.753906 1.390625 -10.796875 1.578125 -10.796875 L 6.5625 -10.796875 C 7.6875 -10.796875 8.460938 -10.5625 8.890625 -10.09375 C 9.316406 -9.632812 9.53125 -9.035156 9.53125 -8.296875 L 9.53125 -7.609375 C 9.53125 -7.179688 9.46875 -6.820312 9.34375 -6.53125 C 9.21875 -6.238281 9 -6.023438 8.6875 -5.890625 C 9.226562 -5.835938 9.664062 -5.617188 10 -5.234375 C 10.332031 -4.859375 10.5 -4.351562 10.5 -3.71875 L 10.5 -0.546875 C 10.5 -0.347656 10.457031 -0.207031 10.375 -0.125 C 10.289062 -0.0390625 10.148438 0 9.953125 0 L 7.640625 0 C 7.441406 0 7.300781 -0.0390625 7.21875 -0.125 C 7.132812 -0.207031 7.09375 -0.347656 7.09375 -0.546875 L 7.09375 -2.828125 C 7.09375 -3.054688 7.050781 -3.222656 6.96875 -3.328125 C 6.882812 -3.429688 6.738281 -3.484375 6.53125 -3.484375 L 4.421875 -3.484375 L 4.421875 -0.546875 C 4.421875 -0.347656 4.378906 -0.207031 4.296875 -0.125 C 4.210938 -0.0390625 4.078125 0 3.890625 0 Z M 3.890625 0 "/></g></g></g><g fill="#ff00ff" fill-opacity="1"><g transform="translate(214.589294, 178.951145)"><g><path d="M 8.21875 0 L 4.5625 0 C 3.3125 0 2.382812 -0.25 1.78125 -0.75 C 1.175781 -1.25 0.875 -2.019531 0.875 -3.0625 L 0.875 -7.71875 C 0.875 -8.757812 1.175781 -9.53125 1.78125 -10.03125 C 2.382812 -10.539062 3.3125 -10.796875 4.5625 -10.796875 L 8.21875 -10.796875 C 8.40625 -10.796875 8.539062 -10.753906 8.625 -10.671875 C 8.71875 -10.585938 8.765625 -10.453125 8.765625 -10.265625 L 8.765625 -8.4375 C 8.765625 -8.25 8.71875 -8.113281 8.625 -8.03125 C 8.539062 -7.945312 8.40625 -7.90625 8.21875 -7.90625 L 5.203125 -7.90625 C 4.890625 -7.90625 4.660156 -7.84375 4.515625 -7.71875 C 4.367188 -7.59375 4.296875 -7.40625 4.296875 -7.15625 L 4.296875 -3.578125 C 4.296875 -3.328125 4.367188 -3.144531 4.515625 -3.03125 C 4.660156 -2.914062 4.890625 -2.859375 5.203125 -2.859375 L 8.21875 -2.859375 C 8.40625 -2.859375 8.539062 -2.816406 8.625 -2.734375 C 8.71875 -2.648438 8.765625 -2.515625 8.765625 -2.328125 L 8.765625 -0.546875 C 8.765625 -0.347656 8.71875 -0.207031 8.625 -0.125 C 8.539062 -0.0390625 8.40625 0 8.21875 0 Z M 8.21875 0 "/></g></g></g><g fill="#ff00ff" fill-opacity="1"><g transform="translate(224.00928, 178.951145)"><g><path d="M 8.53125 0 L 1.578125 0 C 1.390625 0 1.25 -0.0390625 1.15625 -0.125 C 1.070312 -0.207031 1.03125 -0.347656 1.03125 -0.546875 L 1.03125 -10.265625 C 1.03125 -10.453125 1.070312 -10.585938 1.15625 -10.671875 C 1.25 -10.753906 1.390625 -10.796875 1.578125 -10.796875 L 8.53125 -10.796875 C 8.71875 -10.796875 8.851562 -10.753906 8.9375 -10.671875 C 9.03125 -10.585938 9.078125 -10.453125 9.078125 -10.265625 L 9.078125 -8.5 C 9.078125 -8.3125 9.03125 -8.175781 8.9375 -8.09375 C 8.851562 -8.007812 8.71875 -7.96875 8.53125 -7.96875 L 4.390625 -7.96875 L 4.390625 -6.8125 L 7.3125 -6.8125 C 7.507812 -6.8125 7.648438 -6.769531 7.734375 -6.6875 C 7.816406 -6.601562 7.859375 -6.460938 7.859375 -6.265625 L 7.859375 -4.671875 C 7.859375 -4.472656 7.816406 -4.332031 7.734375 -4.25 C 7.648438 -4.164062 7.507812 -4.125 7.3125 -4.125 L 4.390625 -4.125 L 4.390625 -2.828125 L 8.53125 -2.828125 C 8.71875 -2.828125 8.851562 -2.785156 8.9375 -2.703125 C 9.03125 -2.617188 9.078125 -2.484375 9.078125 -2.296875 L 9.078125 -0.546875 C 9.078125 -0.347656 9.03125 -0.207031 8.9375 -0.125 C 8.851562 -0.0390625 8.71875 0 8.53125 0 Z M 8.53125 0 "/></g></g></g><g fill="#00ffff" fill-opacity="1"><g transform="translate(119.146029, 178.222239)"><g><path d="M 9.203125 0 L 1.578125 0 C 1.390625 0 1.25 -0.0390625 1.15625 -0.125 C 1.070312 -0.207031 1.03125 -0.347656 1.03125 -0.546875 L 1.03125 -10.265625 C 1.03125 -10.453125 1.070312 -10.585938 1.15625 -10.671875 C 1.25 -10.753906 1.390625 -10.796875 1.578125 -10.796875 L 3.90625 -10.796875 C 4.09375 -10.796875 4.226562 -10.753906 4.3125 -10.671875 C 4.394531 -10.585938 4.4375 -10.453125 4.4375 -10.265625 L 4.4375 -2.828125 L 6.5 -2.828125 L 6.5 -5.265625 C 6.5 -5.453125 6.539062 -5.585938 6.625 -5.671875 C 6.707031 -5.765625 6.84375 -5.8125 7.03125 -5.8125 L 9.203125 -5.8125 C 9.398438 -5.8125 9.539062 -5.765625 9.625 -5.671875 C 9.707031 -5.585938 9.75 -5.453125 9.75 -5.265625 L 9.75 -0.546875 C 9.75 -0.347656 9.707031 -0.207031 9.625 -0.125 C 9.539062 -0.0390625 9.398438 0 9.203125 0 Z M 9.203125 0 "/></g></g></g><g fill="#00ffff" fill-opacity="1"><g transform="translate(129.571023, 178.222239)"><g><path d="M 4.953125 -7.65625 L 4.25 -5.375 L 6.59375 -5.375 L 5.890625 -7.65625 C 5.847656 -7.738281 5.804688 -7.800781 5.765625 -7.84375 C 5.722656 -7.882812 5.671875 -7.90625 5.609375 -7.90625 L 5.234375 -7.90625 C 5.171875 -7.90625 5.117188 -7.882812 5.078125 -7.84375 C 5.035156 -7.800781 4.992188 -7.738281 4.953125 -7.65625 Z M 4.09375 -0.546875 C 4.09375 -0.347656 4.050781 -0.207031 3.96875 -0.125 C 3.882812 -0.0390625 3.75 0 3.5625 0 L 1.34375 0 C 1.15625 0 1.019531 -0.0390625 0.9375 -0.125 C 0.851562 -0.207031 0.8125 -0.347656 0.8125 -0.546875 L 0.8125 -4.5 C 0.8125 -4.800781 0.859375 -5.144531 0.953125 -5.53125 C 1.046875 -5.925781 1.191406 -6.382812 1.390625 -6.90625 L 2.703125 -10.3125 C 2.765625 -10.476562 2.859375 -10.597656 2.984375 -10.671875 C 3.109375 -10.753906 3.269531 -10.796875 3.46875 -10.796875 L 7.5 -10.796875 C 7.6875 -10.796875 7.84375 -10.753906 7.96875 -10.671875 C 8.09375 -10.597656 8.1875 -10.476562 8.25 -10.3125 L 9.5625 -6.90625 C 9.757812 -6.382812 9.90625 -5.925781 10 -5.53125 C 10.09375 -5.144531 10.140625 -4.800781 10.140625 -4.5 L 10.140625 -0.546875 C 10.140625 -0.347656 10.097656 -0.207031 10.015625 -0.125 C 9.929688 -0.0390625 9.789062 0 9.59375 0 L 7.328125 0 C 7.128906 0 6.984375 -0.0390625 6.890625 -0.125 C 6.796875 -0.207031 6.75 -0.347656 6.75 -0.546875 L 6.75 -2.640625 L 4.09375 -2.640625 Z M 4.09375 -0.546875 "/></g></g></g><g fill="#00ffff" fill-opacity="1"><g transform="translate(140.521016, 178.222239)"><g><path d="M 7.328125 0 L 1.578125 0 C 1.390625 0 1.25 -0.0390625 1.15625 -0.125 C 1.070312 -0.207031 1.03125 -0.347656 1.03125 -0.546875 L 1.03125 -10.265625 C 1.03125 -10.453125 1.070312 -10.585938 1.15625 -10.671875 C 1.25 -10.753906 1.390625 -10.796875 1.578125 -10.796875 L 6.359375 -10.796875 C 7.335938 -10.796875 8.0625 -10.609375 8.53125 -10.234375 C 9 -9.859375 9.234375 -9.28125 9.234375 -8.5 L 9.234375 -7.78125 C 9.234375 -7.363281 9.160156 -7.019531 9.015625 -6.75 C 8.878906 -6.488281 8.660156 -6.296875 8.359375 -6.171875 C 8.992188 -6.109375 9.46875 -5.882812 9.78125 -5.5 C 10.09375 -5.125 10.25 -4.570312 10.25 -3.84375 L 10.25 -2.453125 C 10.25 -1.617188 10.007812 -1 9.53125 -0.59375 C 9.050781 -0.195312 8.316406 0 7.328125 0 Z M 4.40625 -8.25 L 4.40625 -6.625 L 5.6875 -6.625 C 5.875 -6.625 6.015625 -6.675781 6.109375 -6.78125 C 6.203125 -6.882812 6.25 -7.035156 6.25 -7.234375 L 6.25 -7.65625 C 6.25 -7.851562 6.203125 -8 6.109375 -8.09375 C 6.015625 -8.195312 5.875 -8.25 5.6875 -8.25 Z M 4.40625 -4.3125 L 4.40625 -2.546875 L 6.359375 -2.546875 C 6.546875 -2.546875 6.6875 -2.59375 6.78125 -2.6875 C 6.882812 -2.789062 6.9375 -2.945312 6.9375 -3.15625 L 6.9375 -3.734375 C 6.9375 -3.929688 6.882812 -4.078125 6.78125 -4.171875 C 6.6875 -4.265625 6.546875 -4.3125 6.359375 -4.3125 Z M 4.40625 -4.3125 "/></g></g></g><g fill="#00ffff" fill-opacity="1"><g transform="translate(151.396004, 178.222239)"><g><path d="M 8.53125 0 L 1.578125 0 C 1.390625 0 1.25 -0.0390625 1.15625 -0.125 C 1.070312 -0.207031 1.03125 -0.347656 1.03125 -0.546875 L 1.03125 -10.265625 C 1.03125 -10.453125 1.070312 -10.585938 1.15625 -10.671875 C 1.25 -10.753906 1.390625 -10.796875 1.578125 -10.796875 L 8.53125 -10.796875 C 8.71875 -10.796875 8.851562 -10.753906 8.9375 -10.671875 C 9.03125 -10.585938 9.078125 -10.453125 9.078125 -10.265625 L 9.078125 -8.5 C 9.078125 -8.3125 9.03125 -8.175781 8.9375 -8.09375 C 8.851562 -8.007812 8.71875 -7.96875 8.53125 -7.96875 L 4.390625 -7.96875 L 4.390625 -6.8125 L 7.3125 -6.8125 C 7.507812 -6.8125 7.648438 -6.769531 7.734375 -6.6875 C 7.816406 -6.601562 7.859375 -6.460938 7.859375 -6.265625 L 7.859375 -4.671875 C 7.859375 -4.472656 7.816406 -4.332031 7.734375 -4.25 C 7.648438 -4.164062 7.507812 -4.125 7.3125 -4.125 L 4.390625 -4.125 L 4.390625 -2.828125 L 8.53125 -2.828125 C 8.71875 -2.828125 8.851562 -2.785156 8.9375 -2.703125 C 9.03125 -2.617188 9.078125 -2.484375 9.078125 -2.296875 L 9.078125 -0.546875 C 9.078125 -0.347656 9.03125 -0.207031 8.9375 -0.125 C 8.851562 -0.0390625 8.71875 0 8.53125 0 Z M 8.53125 0 "/></g></g></g><g fill="#00ffff" fill-opacity="1"><g transform="translate(161.205993, 178.222239)"><g><path d="M 8.21875 0 L 4.5625 0 C 3.3125 0 2.382812 -0.25 1.78125 -0.75 C 1.175781 -1.25 0.875 -2.019531 0.875 -3.0625 L 0.875 -7.71875 C 0.875 -8.757812 1.175781 -9.53125 1.78125 -10.03125 C 2.382812 -10.539062 3.3125 -10.796875 4.5625 -10.796875 L 8.21875 -10.796875 C 8.40625 -10.796875 8.539062 -10.753906 8.625 -10.671875 C 8.71875 -10.585938 8.765625 -10.453125 8.765625 -10.265625 L 8.765625 -8.4375 C 8.765625 -8.25 8.71875 -8.113281 8.625 -8.03125 C 8.539062 -7.945312 8.40625 -7.90625 8.21875 -7.90625 L 5.203125 -7.90625 C 4.890625 -7.90625 4.660156 -7.84375 4.515625 -7.71875 C 4.367188 -7.59375 4.296875 -7.40625 4.296875 -7.15625 L 4.296875 -3.578125 C 4.296875 -3.328125 4.367188 -3.144531 4.515625 -3.03125 C 4.660156 -2.914062 4.890625 -2.859375 5.203125 -2.859375 L 8.21875 -2.859375 C 8.40625 -2.859375 8.539062 -2.816406 8.625 -2.734375 C 8.71875 -2.648438 8.765625 -2.515625 8.765625 -2.328125 L 8.765625 -0.546875 C 8.765625 -0.347656 8.71875 -0.207031 8.625 -0.125 C 8.539062 -0.0390625 8.40625 0 8.21875 0 Z M 8.21875 0 "/></g></g></g><g fill="#00ffff" fill-opacity="1"><g transform="translate(170.625979, 178.222239)"><g><path d="M 10.1875 -2.828125 C 10.1875 -2.367188 10.117188 -1.953125 9.984375 -1.578125 C 9.847656 -1.203125 9.609375 -0.878906 9.265625 -0.609375 C 8.921875 -0.347656 8.445312 -0.144531 7.84375 0 C 7.238281 0.144531 6.46875 0.21875 5.53125 0.21875 C 4.601562 0.21875 3.832031 0.144531 3.21875 0 C 2.613281 -0.144531 2.140625 -0.347656 1.796875 -0.609375 C 1.453125 -0.878906 1.210938 -1.203125 1.078125 -1.578125 C 0.941406 -1.953125 0.875 -2.367188 0.875 -2.828125 L 0.875 -7.953125 C 0.875 -8.410156 0.941406 -8.828125 1.078125 -9.203125 C 1.210938 -9.578125 1.453125 -9.898438 1.796875 -10.171875 C 2.140625 -10.441406 2.613281 -10.648438 3.21875 -10.796875 C 3.832031 -10.953125 4.601562 -11.03125 5.53125 -11.03125 C 6.46875 -11.03125 7.238281 -10.953125 7.84375 -10.796875 C 8.445312 -10.648438 8.921875 -10.441406 9.265625 -10.171875 C 9.609375 -9.898438 9.847656 -9.578125 9.984375 -9.203125 C 10.117188 -8.828125 10.1875 -8.410156 10.1875 -7.953125 Z M 4.28125 -3.375 C 4.28125 -3.175781 4.351562 -3.007812 4.5 -2.875 C 4.644531 -2.738281 4.988281 -2.671875 5.53125 -2.671875 C 6.070312 -2.671875 6.414062 -2.738281 6.5625 -2.875 C 6.71875 -3.007812 6.796875 -3.175781 6.796875 -3.375 L 6.796875 -7.40625 C 6.796875 -7.59375 6.71875 -7.753906 6.5625 -7.890625 C 6.414062 -8.023438 6.070312 -8.09375 5.53125 -8.09375 C 4.988281 -8.09375 4.644531 -8.023438 4.5 -7.890625 C 4.351562 -7.753906 4.28125 -7.59375 4.28125 -7.40625 Z M 4.28125 -3.375 "/></g></g></g><g fill="#00ffff" fill-opacity="1"><g transform="translate(181.680971, 178.222239)"><g><path d="M 3.8125 0 L 1.578125 0 C 1.390625 0 1.25 -0.0390625 1.15625 -0.125 C 1.070312 -0.207031 1.03125 -0.347656 1.03125 -0.546875 L 1.03125 -10.265625 C 1.03125 -10.453125 1.070312 -10.585938 1.15625 -10.671875 C 1.25 -10.753906 1.390625 -10.796875 1.578125 -10.796875 L 3.984375 -10.796875 C 4.148438 -10.796875 4.285156 -10.757812 4.390625 -10.6875 C 4.492188 -10.625 4.59375 -10.507812 4.6875 -10.34375 L 6.03125 -7.90625 C 6.082031 -7.8125 6.125 -7.742188 6.15625 -7.703125 C 6.1875 -7.671875 6.234375 -7.65625 6.296875 -7.65625 L 6.4375 -7.65625 C 6.5 -7.65625 6.546875 -7.671875 6.578125 -7.703125 C 6.609375 -7.742188 6.648438 -7.8125 6.703125 -7.90625 L 8.046875 -10.34375 C 8.128906 -10.507812 8.222656 -10.625 8.328125 -10.6875 C 8.429688 -10.757812 8.566406 -10.796875 8.734375 -10.796875 L 11.15625 -10.796875 C 11.34375 -10.796875 11.476562 -10.753906 11.5625 -10.671875 C 11.65625 -10.585938 11.703125 -10.453125 11.703125 -10.265625 L 11.703125 -0.546875 C 11.703125 -0.347656 11.65625 -0.207031 11.5625 -0.125 C 11.476562 -0.0390625 11.34375 0 11.15625 0 L 8.84375 0 C 8.65625 0 8.519531 -0.0390625 8.4375 -0.125 C 8.351562 -0.207031 8.3125 -0.347656 8.3125 -0.546875 L 8.3125 -5.8125 L 7.421875 -4.1875 C 7.335938 -4.019531 7.234375 -3.894531 7.109375 -3.8125 C 6.984375 -3.738281 6.820312 -3.703125 6.625 -3.703125 L 6.03125 -3.703125 C 5.84375 -3.703125 5.6875 -3.738281 5.5625 -3.8125 C 5.4375 -3.894531 5.328125 -4.019531 5.234375 -4.1875 L 4.34375 -5.8125 L 4.34375 -0.546875 C 4.34375 -0.347656 4.300781 -0.207031 4.21875 -0.125 C 4.132812 -0.0390625 4 0 3.8125 0 Z M 3.8125 0 "/></g></g></g><g fill="#00ffff" fill-opacity="1"><g transform="translate(194.415955, 178.222239)"><g><path d="M 8.53125 0 L 1.578125 0 C 1.390625 0 1.25 -0.0390625 1.15625 -0.125 C 1.070312 -0.207031 1.03125 -0.347656 1.03125 -0.546875 L 1.03125 -10.265625 C 1.03125 -10.453125 1.070312 -10.585938 1.15625 -10.671875 C 1.25 -10.753906 1.390625 -10.796875 1.578125 -10.796875 L 8.53125 -10.796875 C 8.71875 -10.796875 8.851562 -10.753906 8.9375 -10.671875 C 9.03125 -10.585938 9.078125 -10.453125 9.078125 -10.265625 L 9.078125 -8.5 C 9.078125 -8.3125 9.03125 -8.175781 8.9375 -8.09375 C 8.851562 -8.007812 8.71875 -7.96875 8.53125 -7.96875 L 4.390625 -7.96875 L 4.390625 -6.8125 L 7.3125 -6.8125 C 7.507812 -6.8125 7.648438 -6.769531 7.734375 -6.6875 C 7.816406 -6.601562 7.859375 -6.460938 7.859375 -6.265625 L 7.859375 -4.671875 C 7.859375 -4.472656 7.816406 -4.332031 7.734375 -4.25 C 7.648438 -4.164062 7.507812 -4.125 7.3125 -4.125 L 4.390625 -4.125 L 4.390625 -2.828125 L 8.53125 -2.828125 C 8.71875 -2.828125 8.851562 -2.785156 8.9375 -2.703125 C 9.03125 -2.617188 9.078125 -2.484375 9.078125 -2.296875 L 9.078125 -0.546875 C 9.078125 -0.347656 9.03125 -0.207031 8.9375 -0.125 C 8.851562 -0.0390625 8.71875 0 8.53125 0 Z M 8.53125 0 "/></g></g></g><g fill="#00ffff" fill-opacity="1"><g transform="translate(204.225944, 178.222239)"><g><path d="M 4.421875 -8.09375 L 4.421875 -6.1875 L 5.546875 -6.1875 C 5.804688 -6.1875 5.976562 -6.25 6.0625 -6.375 C 6.15625 -6.507812 6.203125 -6.679688 6.203125 -6.890625 L 6.203125 -7.390625 C 6.203125 -7.585938 6.15625 -7.753906 6.0625 -7.890625 C 5.976562 -8.023438 5.804688 -8.09375 5.546875 -8.09375 Z M 3.890625 0 L 1.578125 0 C 1.390625 0 1.25 -0.0390625 1.15625 -0.125 C 1.070312 -0.207031 1.03125 -0.347656 1.03125 -0.546875 L 1.03125 -10.265625 C 1.03125 -10.453125 1.070312 -10.585938 1.15625 -10.671875 C 1.25 -10.753906 1.390625 -10.796875 1.578125 -10.796875 L 6.5625 -10.796875 C 7.6875 -10.796875 8.460938 -10.5625 8.890625 -10.09375 C 9.316406 -9.632812 9.53125 -9.035156 9.53125 -8.296875 L 9.53125 -7.609375 C 9.53125 -7.179688 9.46875 -6.820312 9.34375 -6.53125 C 9.21875 -6.238281 9 -6.023438 8.6875 -5.890625 C 9.226562 -5.835938 9.664062 -5.617188 10 -5.234375 C 10.332031 -4.859375 10.5 -4.351562 10.5 -3.71875 L 10.5 -0.546875 C 10.5 -0.347656 10.457031 -0.207031 10.375 -0.125 C 10.289062 -0.0390625 10.148438 0 9.953125 0 L 7.640625 0 C 7.441406 0 7.300781 -0.0390625 7.21875 -0.125 C 7.132812 -0.207031 7.09375 -0.347656 7.09375 -0.546875 L 7.09375 -2.828125 C 7.09375 -3.054688 7.050781 -3.222656 6.96875 -3.328125 C 6.882812 -3.429688 6.738281 -3.484375 6.53125 -3.484375 L 4.421875 -3.484375 L 4.421875 -0.546875 C 4.421875 -0.347656 4.378906 -0.207031 4.296875 -0.125 C 4.210938 -0.0390625 4.078125 0 3.890625 0 Z M 3.890625 0 "/></g></g></g><g fill="#00ffff" fill-opacity="1"><g transform="translate(215.370933, 178.222239)"><g><path d="M 8.21875 0 L 4.5625 0 C 3.3125 0 2.382812 -0.25 1.78125 -0.75 C 1.175781 -1.25 0.875 -2.019531 0.875 -3.0625 L 0.875 -7.71875 C 0.875 -8.757812 1.175781 -9.53125 1.78125 -10.03125 C 2.382812 -10.539062 3.3125 -10.796875 4.5625 -10.796875 L 8.21875 -10.796875 C 8.40625 -10.796875 8.539062 -10.753906 8.625 -10.671875 C 8.71875 -10.585938 8.765625 -10.453125 8.765625 -10.265625 L 8.765625 -8.4375 C 8.765625 -8.25 8.71875 -8.113281 8.625 -8.03125 C 8.539062 -7.945312 8.40625 -7.90625 8.21875 -7.90625 L 5.203125 -7.90625 C 4.890625 -7.90625 4.660156 -7.84375 4.515625 -7.71875 C 4.367188 -7.59375 4.296875 -7.40625 4.296875 -7.15625 L 4.296875 -3.578125 C 4.296875 -3.328125 4.367188 -3.144531 4.515625 -3.03125 C 4.660156 -2.914062 4.890625 -2.859375 5.203125 -2.859375 L 8.21875 -2.859375 C 8.40625 -2.859375 8.539062 -2.816406 8.625 -2.734375 C 8.71875 -2.648438 8.765625 -2.515625 8.765625 -2.328125 L 8.765625 -0.546875 C 8.765625 -0.347656 8.71875 -0.207031 8.625 -0.125 C 8.539062 -0.0390625 8.40625 0 8.21875 0 Z M 8.21875 0 "/></g></g></g><g fill="#00ffff" fill-opacity="1"><g transform="translate(224.790919, 178.222239)"><g><path d="M 8.53125 0 L 1.578125 0 C 1.390625 0 1.25 -0.0390625 1.15625 -0.125 C 1.070312 -0.207031 1.03125 -0.347656 1.03125 -0.546875 L 1.03125 -10.265625 C 1.03125 -10.453125 1.070312 -10.585938 1.15625 -10.671875 C 1.25 -10.753906 1.390625 -10.796875 1.578125 -10.796875 L 8.53125 -10.796875 C 8.71875 -10.796875 8.851562 -10.753906 8.9375 -10.671875 C 9.03125 -10.585938 9.078125 -10.453125 9.078125 -10.265625 L 9.078125 -8.5 C 9.078125 -8.3125 9.03125 -8.175781 8.9375 -8.09375 C 8.851562 -8.007812 8.71875 -7.96875 8.53125 -7.96875 L 4.390625 -7.96875 L 4.390625 -6.8125 L 7.3125 -6.8125 C 7.507812 -6.8125 7.648438 -6.769531 7.734375 -6.6875 C 7.816406 -6.601562 7.859375 -6.460938 7.859375 -6.265625 L 7.859375 -4.671875 C 7.859375 -4.472656 7.816406 -4.332031 7.734375 -4.25 C 7.648438 -4.164062 7.507812 -4.125 7.3125 -4.125 L 4.390625 -4.125 L 4.390625 -2.828125 L 8.53125 -2.828125 C 8.71875 -2.828125 8.851562 -2.785156 8.9375 -2.703125 C 9.03125 -2.617188 9.078125 -2.484375 9.078125 -2.296875 L 9.078125 -0.546875 C 9.078125 -0.347656 9.03125 -0.207031 8.9375 -0.125 C 8.851562 -0.0390625 8.71875 0 8.53125 0 Z M 8.53125 0 "/></g></g></g><g fill="#000000" fill-opacity="1"><g transform="translate(118.75521, 178.586693)"><g><path d="M 9.203125 0 L 1.578125 0 C 1.390625 0 1.25 -0.0390625 1.15625 -0.125 C 1.070312 -0.207031 1.03125 -0.347656 1.03125 -0.546875 L 1.03125 -10.265625 C 1.03125 -10.453125 1.070312 -10.585938 1.15625 -10.671875 C 1.25 -10.753906 1.390625 -10.796875 1.578125 -10.796875 L 3.90625 -10.796875 C 4.09375 -10.796875 4.226562 -10.753906 4.3125 -10.671875 C 4.394531 -10.585938 4.4375 -10.453125 4.4375 -10.265625 L 4.4375 -2.828125 L 6.5 -2.828125 L 6.5 -5.265625 C 6.5 -5.453125 6.539062 -5.585938 6.625 -5.671875 C 6.707031 -5.765625 6.84375 -5.8125 7.03125 -5.8125 L 9.203125 -5.8125 C 9.398438 -5.8125 9.539062 -5.765625 9.625 -5.671875 C 9.707031 -5.585938 9.75 -5.453125 9.75 -5.265625 L 9.75 -0.546875 C 9.75 -0.347656 9.707031 -0.207031 9.625 -0.125 C 9.539062 -0.0390625 9.398438 0 9.203125 0 Z M 9.203125 0 "/></g></g></g><g fill="#000000" fill-opacity="1"><g transform="translate(129.180205, 178.586693)"><g><path d="M 4.953125 -7.65625 L 4.25 -5.375 L 6.59375 -5.375 L 5.890625 -7.65625 C 5.847656 -7.738281 5.804688 -7.800781 5.765625 -7.84375 C 5.722656 -7.882812 5.671875 -7.90625 5.609375 -7.90625 L 5.234375 -7.90625 C 5.171875 -7.90625 5.117188 -7.882812 5.078125 -7.84375 C 5.035156 -7.800781 4.992188 -7.738281 4.953125 -7.65625 Z M 4.09375 -0.546875 C 4.09375 -0.347656 4.050781 -0.207031 3.96875 -0.125 C 3.882812 -0.0390625 3.75 0 3.5625 0 L 1.34375 0 C 1.15625 0 1.019531 -0.0390625 0.9375 -0.125 C 0.851562 -0.207031 0.8125 -0.347656 0.8125 -0.546875 L 0.8125 -4.5 C 0.8125 -4.800781 0.859375 -5.144531 0.953125 -5.53125 C 1.046875 -5.925781 1.191406 -6.382812 1.390625 -6.90625 L 2.703125 -10.3125 C 2.765625 -10.476562 2.859375 -10.597656 2.984375 -10.671875 C 3.109375 -10.753906 3.269531 -10.796875 3.46875 -10.796875 L 7.5 -10.796875 C 7.6875 -10.796875 7.84375 -10.753906 7.96875 -10.671875 C 8.09375 -10.597656 8.1875 -10.476562 8.25 -10.3125 L 9.5625 -6.90625 C 9.757812 -6.382812 9.90625 -5.925781 10 -5.53125 C 10.09375 -5.144531 10.140625 -4.800781 10.140625 -4.5 L 10.140625 -0.546875 C 10.140625 -0.347656 10.097656 -0.207031 10.015625 -0.125 C 9.929688 -0.0390625 9.789062 0 9.59375 0 L 7.328125 0 C 7.128906 0 6.984375 -0.0390625 6.890625 -0.125 C 6.796875 -0.207031 6.75 -0.347656 6.75 -0.546875 L 6.75 -2.640625 L 4.09375 -2.640625 Z M 4.09375 -0.546875 "/></g></g></g><g fill="#000000" fill-opacity="1"><g transform="translate(140.130197, 178.586693)"><g><path d="M 7.328125 0 L 1.578125 0 C 1.390625 0 1.25 -0.0390625 1.15625 -0.125 C 1.070312 -0.207031 1.03125 -0.347656 1.03125 -0.546875 L 1.03125 -10.265625 C 1.03125 -10.453125 1.070312 -10.585938 1.15625 -10.671875 C 1.25 -10.753906 1.390625 -10.796875 1.578125 -10.796875 L 6.359375 -10.796875 C 7.335938 -10.796875 8.0625 -10.609375 8.53125 -10.234375 C 9 -9.859375 9.234375 -9.28125 9.234375 -8.5 L 9.234375 -7.78125 C 9.234375 -7.363281 9.160156 -7.019531 9.015625 -6.75 C 8.878906 -6.488281 8.660156 -6.296875 8.359375 -6.171875 C 8.992188 -6.109375 9.46875 -5.882812 9.78125 -5.5 C 10.09375 -5.125 10.25 -4.570312 10.25 -3.84375 L 10.25 -2.453125 C 10.25 -1.617188 10.007812 -1 9.53125 -0.59375 C 9.050781 -0.195312 8.316406 0 7.328125 0 Z M 4.40625 -8.25 L 4.40625 -6.625 L 5.6875 -6.625 C 5.875 -6.625 6.015625 -6.675781 6.109375 -6.78125 C 6.203125 -6.882812 6.25 -7.035156 6.25 -7.234375 L 6.25 -7.65625 C 6.25 -7.851562 6.203125 -8 6.109375 -8.09375 C 6.015625 -8.195312 5.875 -8.25 5.6875 -8.25 Z M 4.40625 -4.3125 L 4.40625 -2.546875 L 6.359375 -2.546875 C 6.546875 -2.546875 6.6875 -2.59375 6.78125 -2.6875 C 6.882812 -2.789062 6.9375 -2.945312 6.9375 -3.15625 L 6.9375 -3.734375 C 6.9375 -3.929688 6.882812 -4.078125 6.78125 -4.171875 C 6.6875 -4.265625 6.546875 -4.3125 6.359375 -4.3125 Z M 4.40625 -4.3125 "/></g></g></g><g fill="#000000" fill-opacity="1"><g transform="translate(151.005185, 178.586693)"><g><path d="M 8.53125 0 L 1.578125 0 C 1.390625 0 1.25 -0.0390625 1.15625 -0.125 C 1.070312 -0.207031 1.03125 -0.347656 1.03125 -0.546875 L 1.03125 -10.265625 C 1.03125 -10.453125 1.070312 -10.585938 1.15625 -10.671875 C 1.25 -10.753906 1.390625 -10.796875 1.578125 -10.796875 L 8.53125 -10.796875 C 8.71875 -10.796875 8.851562 -10.753906 8.9375 -10.671875 C 9.03125 -10.585938 9.078125 -10.453125 9.078125 -10.265625 L 9.078125 -8.5 C 9.078125 -8.3125 9.03125 -8.175781 8.9375 -8.09375 C 8.851562 -8.007812 8.71875 -7.96875 8.53125 -7.96875 L 4.390625 -7.96875 L 4.390625 -6.8125 L 7.3125 -6.8125 C 7.507812 -6.8125 7.648438 -6.769531 7.734375 -6.6875 C 7.816406 -6.601562 7.859375 -6.460938 7.859375 -6.265625 L 7.859375 -4.671875 C 7.859375 -4.472656 7.816406 -4.332031 7.734375 -4.25 C 7.648438 -4.164062 7.507812 -4.125 7.3125 -4.125 L 4.390625 -4.125 L 4.390625 -2.828125 L 8.53125 -2.828125 C 8.71875 -2.828125 8.851562 -2.785156 8.9375 -2.703125 C 9.03125 -2.617188 9.078125 -2.484375 9.078125 -2.296875 L 9.078125 -0.546875 C 9.078125 -0.347656 9.03125 -0.207031 8.9375 -0.125 C 8.851562 -0.0390625 8.71875 0 8.53125 0 Z M 8.53125 0 "/></g></g></g><g fill="#000000" fill-opacity="1"><g transform="translate(160.815175, 178.586693)"><g><path d="M 8.21875 0 L 4.5625 0 C 3.3125 0 2.382812 -0.25 1.78125 -0.75 C 1.175781 -1.25 0.875 -2.019531 0.875 -3.0625 L 0.875 -7.71875 C 0.875 -8.757812 1.175781 -9.53125 1.78125 -10.03125 C 2.382812 -10.539062 3.3125 -10.796875 4.5625 -10.796875 L 8.21875 -10.796875 C 8.40625 -10.796875 8.539062 -10.753906 8.625 -10.671875 C 8.71875 -10.585938 8.765625 -10.453125 8.765625 -10.265625 L 8.765625 -8.4375 C 8.765625 -8.25 8.71875 -8.113281 8.625 -8.03125 C 8.539062 -7.945312 8.40625 -7.90625 8.21875 -7.90625 L 5.203125 -7.90625 C 4.890625 -7.90625 4.660156 -7.84375 4.515625 -7.71875 C 4.367188 -7.59375 4.296875 -7.40625 4.296875 -7.15625 L 4.296875 -3.578125 C 4.296875 -3.328125 4.367188 -3.144531 4.515625 -3.03125 C 4.660156 -2.914062 4.890625 -2.859375 5.203125 -2.859375 L 8.21875 -2.859375 C 8.40625 -2.859375 8.539062 -2.816406 8.625 -2.734375 C 8.71875 -2.648438 8.765625 -2.515625 8.765625 -2.328125 L 8.765625 -0.546875 C 8.765625 -0.347656 8.71875 -0.207031 8.625 -0.125 C 8.539062 -0.0390625 8.40625 0 8.21875 0 Z M 8.21875 0 "/></g></g></g><g fill="#000000" fill-opacity="1"><g transform="translate(170.235161, 178.586693)"><g><path d="M 10.1875 -2.828125 C 10.1875 -2.367188 10.117188 -1.953125 9.984375 -1.578125 C 9.847656 -1.203125 9.609375 -0.878906 9.265625 -0.609375 C 8.921875 -0.347656 8.445312 -0.144531 7.84375 0 C 7.238281 0.144531 6.46875 0.21875 5.53125 0.21875 C 4.601562 0.21875 3.832031 0.144531 3.21875 0 C 2.613281 -0.144531 2.140625 -0.347656 1.796875 -0.609375 C 1.453125 -0.878906 1.210938 -1.203125 1.078125 -1.578125 C 0.941406 -1.953125 0.875 -2.367188 0.875 -2.828125 L 0.875 -7.953125 C 0.875 -8.410156 0.941406 -8.828125 1.078125 -9.203125 C 1.210938 -9.578125 1.453125 -9.898438 1.796875 -10.171875 C 2.140625 -10.441406 2.613281 -10.648438 3.21875 -10.796875 C 3.832031 -10.953125 4.601562 -11.03125 5.53125 -11.03125 C 6.46875 -11.03125 7.238281 -10.953125 7.84375 -10.796875 C 8.445312 -10.648438 8.921875 -10.441406 9.265625 -10.171875 C 9.609375 -9.898438 9.847656 -9.578125 9.984375 -9.203125 C 10.117188 -8.828125 10.1875 -8.410156 10.1875 -7.953125 Z M 4.28125 -3.375 C 4.28125 -3.175781 4.351562 -3.007812 4.5 -2.875 C 4.644531 -2.738281 4.988281 -2.671875 5.53125 -2.671875 C 6.070312 -2.671875 6.414062 -2.738281 6.5625 -2.875 C 6.71875 -3.007812 6.796875 -3.175781 6.796875 -3.375 L 6.796875 -7.40625 C 6.796875 -7.59375 6.71875 -7.753906 6.5625 -7.890625 C 6.414062 -8.023438 6.070312 -8.09375 5.53125 -8.09375 C 4.988281 -8.09375 4.644531 -8.023438 4.5 -7.890625 C 4.351562 -7.753906 4.28125 -7.59375 4.28125 -7.40625 Z M 4.28125 -3.375 "/></g></g></g><g fill="#000000" fill-opacity="1"><g transform="translate(181.290153, 178.586693)"><g><path d="M 3.8125 0 L 1.578125 0 C 1.390625 0 1.25 -0.0390625 1.15625 -0.125 C 1.070312 -0.207031 1.03125 -0.347656 1.03125 -0.546875 L 1.03125 -10.265625 C 1.03125 -10.453125 1.070312 -10.585938 1.15625 -10.671875 C 1.25 -10.753906 1.390625 -10.796875 1.578125 -10.796875 L 3.984375 -10.796875 C 4.148438 -10.796875 4.285156 -10.757812 4.390625 -10.6875 C 4.492188 -10.625 4.59375 -10.507812 4.6875 -10.34375 L 6.03125 -7.90625 C 6.082031 -7.8125 6.125 -7.742188 6.15625 -7.703125 C 6.1875 -7.671875 6.234375 -7.65625 6.296875 -7.65625 L 6.4375 -7.65625 C 6.5 -7.65625 6.546875 -7.671875 6.578125 -7.703125 C 6.609375 -7.742188 6.648438 -7.8125 6.703125 -7.90625 L 8.046875 -10.34375 C 8.128906 -10.507812 8.222656 -10.625 8.328125 -10.6875 C 8.429688 -10.757812 8.566406 -10.796875 8.734375 -10.796875 L 11.15625 -10.796875 C 11.34375 -10.796875 11.476562 -10.753906 11.5625 -10.671875 C 11.65625 -10.585938 11.703125 -10.453125 11.703125 -10.265625 L 11.703125 -0.546875 C 11.703125 -0.347656 11.65625 -0.207031 11.5625 -0.125 C 11.476562 -0.0390625 11.34375 0 11.15625 0 L 8.84375 0 C 8.65625 0 8.519531 -0.0390625 8.4375 -0.125 C 8.351562 -0.207031 8.3125 -0.347656 8.3125 -0.546875 L 8.3125 -5.8125 L 7.421875 -4.1875 C 7.335938 -4.019531 7.234375 -3.894531 7.109375 -3.8125 C 6.984375 -3.738281 6.820312 -3.703125 6.625 -3.703125 L 6.03125 -3.703125 C 5.84375 -3.703125 5.6875 -3.738281 5.5625 -3.8125 C 5.4375 -3.894531 5.328125 -4.019531 5.234375 -4.1875 L 4.34375 -5.8125 L 4.34375 -0.546875 C 4.34375 -0.347656 4.300781 -0.207031 4.21875 -0.125 C 4.132812 -0.0390625 4 0 3.8125 0 Z M 3.8125 0 "/></g></g></g><g fill="#000000" fill-opacity="1"><g transform="translate(194.025137, 178.586693)"><g><path d="M 8.53125 0 L 1.578125 0 C 1.390625 0 1.25 -0.0390625 1.15625 -0.125 C 1.070312 -0.207031 1.03125 -0.347656 1.03125 -0.546875 L 1.03125 -10.265625 C 1.03125 -10.453125 1.070312 -10.585938 1.15625 -10.671875 C 1.25 -10.753906 1.390625 -10.796875 1.578125 -10.796875 L 8.53125 -10.796875 C 8.71875 -10.796875 8.851562 -10.753906 8.9375 -10.671875 C 9.03125 -10.585938 9.078125 -10.453125 9.078125 -10.265625 L 9.078125 -8.5 C 9.078125 -8.3125 9.03125 -8.175781 8.9375 -8.09375 C 8.851562 -8.007812 8.71875 -7.96875 8.53125 -7.96875 L 4.390625 -7.96875 L 4.390625 -6.8125 L 7.3125 -6.8125 C 7.507812 -6.8125 7.648438 -6.769531 7.734375 -6.6875 C 7.816406 -6.601562 7.859375 -6.460938 7.859375 -6.265625 L 7.859375 -4.671875 C 7.859375 -4.472656 7.816406 -4.332031 7.734375 -4.25 C 7.648438 -4.164062 7.507812 -4.125 7.3125 -4.125 L 4.390625 -4.125 L 4.390625 -2.828125 L 8.53125 -2.828125 C 8.71875 -2.828125 8.851562 -2.785156 8.9375 -2.703125 C 9.03125 -2.617188 9.078125 -2.484375 9.078125 -2.296875 L 9.078125 -0.546875 C 9.078125 -0.347656 9.03125 -0.207031 8.9375 -0.125 C 8.851562 -0.0390625 8.71875 0 8.53125 0 Z M 8.53125 0 "/></g></g></g><g fill="#000000" fill-opacity="1"><g transform="translate(203.835126, 178.586693)"><g><path d="M 4.421875 -8.09375 L 4.421875 -6.1875 L 5.546875 -6.1875 C 5.804688 -6.1875 5.976562 -6.25 6.0625 -6.375 C 6.15625 -6.507812 6.203125 -6.679688 6.203125 -6.890625 L 6.203125 -7.390625 C 6.203125 -7.585938 6.15625 -7.753906 6.0625 -7.890625 C 5.976562 -8.023438 5.804688 -8.09375 5.546875 -8.09375 Z M 3.890625 0 L 1.578125 0 C 1.390625 0 1.25 -0.0390625 1.15625 -0.125 C 1.070312 -0.207031 1.03125 -0.347656 1.03125 -0.546875 L 1.03125 -10.265625 C 1.03125 -10.453125 1.070312 -10.585938 1.15625 -10.671875 C 1.25 -10.753906 1.390625 -10.796875 1.578125 -10.796875 L 6.5625 -10.796875 C 7.6875 -10.796875 8.460938 -10.5625 8.890625 -10.09375 C 9.316406 -9.632812 9.53125 -9.035156 9.53125 -8.296875 L 9.53125 -7.609375 C 9.53125 -7.179688 9.46875 -6.820312 9.34375 -6.53125 C 9.21875 -6.238281 9 -6.023438 8.6875 -5.890625 C 9.226562 -5.835938 9.664062 -5.617188 10 -5.234375 C 10.332031 -4.859375 10.5 -4.351562 10.5 -3.71875 L 10.5 -0.546875 C 10.5 -0.347656 10.457031 -0.207031 10.375 -0.125 C 10.289062 -0.0390625 10.148438 0 9.953125 0 L 7.640625 0 C 7.441406 0 7.300781 -0.0390625 7.21875 -0.125 C 7.132812 -0.207031 7.09375 -0.347656 7.09375 -0.546875 L 7.09375 -2.828125 C 7.09375 -3.054688 7.050781 -3.222656 6.96875 -3.328125 C 6.882812 -3.429688 6.738281 -3.484375 6.53125 -3.484375 L 4.421875 -3.484375 L 4.421875 -0.546875 C 4.421875 -0.347656 4.378906 -0.207031 4.296875 -0.125 C 4.210938 -0.0390625 4.078125 0 3.890625 0 Z M 3.890625 0 "/></g></g></g><g fill="#000000" fill-opacity="1"><g transform="translate(214.980114, 178.586693)"><g><path d="M 8.21875 0 L 4.5625 0 C 3.3125 0 2.382812 -0.25 1.78125 -0.75 C 1.175781 -1.25 0.875 -2.019531 0.875 -3.0625 L 0.875 -7.71875 C 0.875 -8.757812 1.175781 -9.53125 1.78125 -10.03125 C 2.382812 -10.539062 3.3125 -10.796875 4.5625 -10.796875 L 8.21875 -10.796875 C 8.40625 -10.796875 8.539062 -10.753906 8.625 -10.671875 C 8.71875 -10.585938 8.765625 -10.453125 8.765625 -10.265625 L 8.765625 -8.4375 C 8.765625 -8.25 8.71875 -8.113281 8.625 -8.03125 C 8.539062 -7.945312 8.40625 -7.90625 8.21875 -7.90625 L 5.203125 -7.90625 C 4.890625 -7.90625 4.660156 -7.84375 4.515625 -7.71875 C 4.367188 -7.59375 4.296875 -7.40625 4.296875 -7.15625 L 4.296875 -3.578125 C 4.296875 -3.328125 4.367188 -3.144531 4.515625 -3.03125 C 4.660156 -2.914062 4.890625 -2.859375 5.203125 -2.859375 L 8.21875 -2.859375 C 8.40625 -2.859375 8.539062 -2.816406 8.625 -2.734375 C 8.71875 -2.648438 8.765625 -2.515625 8.765625 -2.328125 L 8.765625 -0.546875 C 8.765625 -0.347656 8.71875 -0.207031 8.625 -0.125 C 8.539062 -0.0390625 8.40625 0 8.21875 0 Z M 8.21875 0 "/></g></g></g><g fill="#000000" fill-opacity="1"><g transform="translate(224.4001, 178.586693)"><g><path d="M 8.53125 0 L 1.578125 0 C 1.390625 0 1.25 -0.0390625 1.15625 -0.125 C 1.070312 -0.207031 1.03125 -0.347656 1.03125 -0.546875 L 1.03125 -10.265625 C 1.03125 -10.453125 1.070312 -10.585938 1.15625 -10.671875 C 1.25 -10.753906 1.390625 -10.796875 1.578125 -10.796875 L 8.53125 -10.796875 C 8.71875 -10.796875 8.851562 -10.753906 8.9375 -10.671875 C 9.03125 -10.585938 9.078125 -10.453125 9.078125 -10.265625 L 9.078125 -8.5 C 9.078125 -8.3125 9.03125 -8.175781 8.9375 -8.09375 C 8.851562 -8.007812 8.71875 -7.96875 8.53125 -7.96875 L 4.390625 -7.96875 L 4.390625 -6.8125 L 7.3125 -6.8125 C 7.507812 -6.8125 7.648438 -6.769531 7.734375 -6.6875 C 7.816406 -6.601562 7.859375 -6.460938 7.859375 -6.265625 L 7.859375 -4.671875 C 7.859375 -4.472656 7.816406 -4.332031 7.734375 -4.25 C 7.648438 -4.164062 7.507812 -4.125 7.3125 -4.125 L 4.390625 -4.125 L 4.390625 -2.828125 L 8.53125 -2.828125 C 8.71875 -2.828125 8.851562 -2.785156 8.9375 -2.703125 C 9.03125 -2.617188 9.078125 -2.484375 9.078125 -2.296875 L 9.078125 -0.546875 C 9.078125 -0.347656 9.03125 -0.207031 8.9375 -0.125 C 8.851562 -0.0390625 8.71875 0 8.53125 0 Z M 8.53125 0 "/></g></g></g></svg>